<svg width="62" height="62" viewBox="0 0 62 62" fill="none" xmlns="http://www.w3.org/2000/svg">
<circle cx="31" cy="31" r="31" fill="#184B90"/>
<path d="M19.75 49.1875C18.7187 49.1875 17.8362 48.8206 17.1025 48.0869C16.3687 47.3531 16.0012 46.47 16 45.4375V26.6875C16 25.6563 16.3675 24.7738 17.1025 24.04C17.8375 23.3063 18.72 22.9388 19.75 22.9375H21.625V19.1875C21.625 16.5938 22.5394 14.3831 24.3681 12.5556C26.1969 10.7281 28.4075 9.81375 31 9.8125C33.5925 9.81125 35.8037 10.7256 37.6337 12.5556C39.4637 14.3856 40.3775 16.5963 40.375 19.1875V22.9375H42.25C43.2812 22.9375 44.1644 23.305 44.8994 24.04C45.6344 24.775 46.0012 25.6575 46 26.6875V45.4375C46 46.4687 45.6331 47.3519 44.8994 48.0869C44.1656 48.8219 43.2825 49.1887 42.25 49.1875H19.75ZM33.6494 38.7119C34.3831 37.9769 34.75 37.0938 34.75 36.0625C34.75 35.0313 34.3831 34.1488 33.6494 33.415C32.9156 32.6813 32.0325 32.3138 31 32.3125C29.9675 32.3113 29.085 32.6788 28.3525 33.415C27.62 34.1513 27.2525 35.0338 27.25 36.0625C27.2475 37.0913 27.615 37.9744 28.3525 38.7119C29.09 39.4494 29.9725 39.8162 31 39.8125C32.0275 39.8087 32.9106 39.4419 33.6494 38.7119ZM25.375 22.9375H36.625V19.1875C36.625 17.625 36.0781 16.2969 34.9844 15.2031C33.8906 14.1094 32.5625 13.5625 31 13.5625C29.4375 13.5625 28.1094 14.1094 27.0156 15.2031C25.9219 16.2969 25.375 17.625 25.375 19.1875V22.9375Z" fill="white"/>
</svg>
