<svg width="500" height="500" viewBox="0 0 500 500" fill="none" xmlns="http://www.w3.org/2000/svg">
<path d="M401.909 22H97.0909C73.993 22 51.8411 31.151 35.5083 47.4399C19.1756 63.7287 10 85.8212 10 108.857V282.571C10 305.607 19.1756 327.7 35.5083 343.989C51.8411 360.278 73.993 369.429 97.0909 369.429H358.364L489 478V108.857C489 85.8212 479.824 63.7287 463.492 47.4399C447.159 31.151 425.007 22 401.909 22Z" fill="#E6E9E9" stroke="#E6E9E9" stroke-width="10"/>
<path d="M246.256 103.014C246.879 102.376 247.618 101.869 248.432 101.524C249.246 101.178 250.119 101 251 101C251.881 101 252.754 101.178 253.568 101.524C254.382 101.869 255.121 102.376 255.744 103.014C259.241 106.607 274.611 122.899 289.15 144.196C303.488 165.191 318 192.412 318 217.576C318 241.986 310.268 260.979 297.686 273.87C285.157 286.719 268.299 293 251 293C233.701 293 216.843 286.719 204.314 273.87C191.732 260.979 184 242 184 217.576C184 192.412 198.512 165.191 212.85 144.21C222.874 129.572 234.046 115.795 246.256 103.014Z" fill="#184B90"/>
</svg>
