<svg width="90" height="90" viewBox="0 0 90 90" fill="none" xmlns="http://www.w3.org/2000/svg">
<circle cx="45" cy="45" r="45" fill="#E6E9E9"/>
<path opacity="0.987" fill-rule="evenodd" clip-rule="evenodd" d="M40.6544 18.4508C43.552 18.1271 45.2666 18.1271 48.38 18.4508C53.8912 19.2665 59.0001 21.814 62.968 25.7248C60.2867 28.2593 57.6406 30.8307 55.0305 33.4385C50.032 29.202 44.4526 28.2241 38.2923 30.5049C33.7734 32.5832 30.6266 35.9511 28.8521 40.6086C25.9522 38.4497 23.0902 36.2405 20.2672 33.982C20.071 33.8788 19.8469 33.8409 19.6277 33.8741C24.112 25.2279 31.1196 20.0855 40.6504 18.4468" fill="#F44336"/>
<path opacity="0.997" fill-rule="evenodd" clip-rule="evenodd" d="M19.6196 33.8741C19.8461 33.8394 20.0606 33.8754 20.2631 33.982C23.0861 36.2404 25.9482 38.4496 28.848 40.6085C28.3917 42.4233 28.1041 44.2763 27.9887 46.144C28.0873 47.9505 28.3738 49.7237 28.848 51.4636L19.8355 58.6377C15.9107 50.4364 15.8387 42.1819 19.6196 33.8741Z" fill="#FFC107"/>
<path opacity="0.999" fill-rule="evenodd" clip-rule="evenodd" d="M62.5402 67.3268C59.734 64.8519 56.7961 62.5305 53.7395 60.3725C56.8036 58.2089 58.6634 55.2407 59.3189 51.4678H44.3032V41.0404C52.9628 40.9685 61.6183 41.0417 70.2699 41.2602C71.9112 50.1729 70.0154 58.2089 64.5825 65.3684C63.9365 66.0551 63.2522 66.7087 62.5402 67.3268Z" fill="#448AFF"/>
<path opacity="0.993" fill-rule="evenodd" clip-rule="evenodd" d="M28.848 51.4678C32.1253 59.6131 38.1337 63.4153 46.8732 62.8744C49.3265 62.5904 51.6786 61.7333 53.7395 60.3724C56.7984 62.536 59.7319 64.8541 62.5403 67.3267C58.0906 71.3252 52.4171 73.6978 46.4455 74.0572C45.0888 74.1656 43.7256 74.1656 42.3689 74.0572C32.1959 72.8582 24.6848 67.7184 19.8354 58.6379L28.848 51.4678Z" fill="#43A047"/>
</svg>
