<svg width="158" height="153" viewBox="0 0 158 153" fill="none" xmlns="http://www.w3.org/2000/svg">
<path d="M127.682 2.5H30.3182C22.9403 2.5 15.8647 5.40986 10.6478 10.5894C5.43084 15.769 2.5 22.794 2.5 30.119V85.3571C2.5 92.6822 5.43084 99.7072 10.6478 104.887C15.8647 110.066 22.9403 112.976 30.3182 112.976H113.773L155.5 147.5V30.119C155.5 22.794 152.569 15.769 147.352 10.5894C142.135 5.40986 135.06 2.5 127.682 2.5Z" fill="white" stroke="white" stroke-width="5"/>
<mask id="path-2-inside-1_73_39" fill="white">
<path d="M55.7818 53.1662C56.1712 53.1662 56.6054 53.2261 57.0845 53.3459C57.5637 53.4656 58.0429 53.6304 58.522 53.84C59.0012 54.0496 59.4803 54.2443 59.9595 54.424C60.4386 54.6036 60.8729 54.7833 61.2622 54.963L60.5434 55.0528C60.3039 55.0828 60.0493 55.0978 59.7798 55.0978C59.2707 55.0978 58.8065 55.0229 58.3872 54.8732C57.968 54.7234 57.5787 54.5288 57.2193 54.2892C56.8599 54.0496 56.5006 53.8699 56.1412 53.7501C55.7818 53.6304 55.4524 53.5405 55.153 53.4806C54.8535 53.4806 54.584 53.5405 54.3444 53.6603C54.1048 53.7801 53.8652 53.9149 53.6256 54.0646C53.6256 53.9448 53.5208 53.8849 53.3112 53.8849C53.5208 53.6753 53.9101 53.5106 54.4791 53.3908C55.0481 53.271 55.4824 53.1961 55.7818 53.1662ZM61.8461 55.1876C63.074 55.1876 64.197 55.3972 65.2152 55.8165C64.7959 55.9662 64.3767 56.086 63.9574 56.1759C63.5382 56.2657 63.1039 56.3256 62.6547 56.3555C62.0558 56.3555 61.5167 56.2957 61.0376 56.1759C61.1873 55.9363 61.337 55.7866 61.4868 55.7267C61.6365 55.6668 61.7563 55.4871 61.8461 55.1876ZM79.5 13.5012C83.7225 13.5012 87.7804 14.0552 91.6735 15.1632C95.5667 16.2713 99.2202 17.8135 102.634 19.7901C106.048 21.7666 109.163 24.1773 111.978 27.0223C114.793 29.8673 117.189 32.9668 119.165 36.3209C121.142 39.675 122.699 43.3285 123.837 47.2816C124.975 51.2346 125.529 55.3074 125.499 59.5C125.499 63.7225 124.945 67.7804 123.837 71.6735C122.729 75.5667 121.186 79.2202 119.21 82.6342C117.233 86.0482 114.823 89.1627 111.978 91.9777C109.133 94.7927 106.033 97.1885 102.679 99.165C99.325 101.142 95.6715 102.699 91.7184 103.837C87.7654 104.975 83.6926 105.529 79.5 105.499C75.2775 105.499 71.2196 104.945 67.3265 103.837C63.4333 102.729 59.7798 101.186 56.3658 99.2099C52.9518 97.2334 49.8373 94.8227 47.0223 91.9777C44.2073 89.1327 41.8115 86.0332 39.835 82.6791C37.8585 79.325 36.3012 75.6715 35.1632 71.7184C34.0252 67.7654 33.4712 63.6926 33.5012 59.5C33.5012 55.2775 34.0552 51.2196 35.1632 47.3265C36.2713 43.4333 37.8135 39.7798 39.7901 36.3658C41.7666 32.9518 44.1773 29.8373 47.0223 27.0223C49.8673 24.2073 52.9668 21.8115 56.3209 19.835C59.675 17.8585 63.3285 16.3012 67.2816 15.1632C71.2346 14.0252 75.3074 13.4712 79.5 13.5012ZM113.73 38.4322C113.31 37.7733 112.891 37.1444 112.472 36.5455C112.053 35.9466 111.618 35.3326 111.169 34.7037C111.109 34.9733 111.034 35.1679 110.945 35.2877C110.855 35.4075 110.795 35.677 110.765 36.0963C110.765 36.3658 110.87 36.6204 111.079 36.8599C111.289 37.0995 111.558 37.3391 111.888 37.5787C112.217 37.8183 112.547 37.9979 112.876 38.1177C113.206 38.2375 113.49 38.3423 113.73 38.4322ZM110.63 34.0299C110.63 34.2695 110.585 34.4342 110.495 34.5241H110.765C110.885 34.5241 110.974 34.539 111.034 34.569L110.63 34.0299ZM79.5 99.749C82.914 99.749 86.2531 99.3148 89.5173 98.4463C92.7816 97.5778 95.8661 96.35 98.771 94.7628C101.676 93.1756 104.371 91.229 106.857 88.9231C109.342 86.6172 111.514 84.0417 113.37 81.1967C112.981 80.2983 112.607 79.3849 112.247 78.4566C111.888 77.5282 111.708 76.5699 111.708 75.5816C111.708 74.5035 111.753 73.6351 111.843 72.9762C111.933 72.3174 112.038 71.7334 112.157 71.2243C112.277 70.7152 112.337 70.281 112.337 69.9216C112.337 69.5622 112.292 69.0981 112.202 68.5291C112.112 67.9601 111.858 67.3462 111.439 66.6873C111.019 66.0285 110.465 65.1001 109.777 63.9022C109.807 63.6926 109.851 63.4081 109.911 63.0487C109.971 62.6894 110.031 62.315 110.091 61.9257C110.151 61.5364 110.166 61.177 110.136 60.8476C110.106 60.5182 110.031 60.2337 109.911 59.9941C109.133 59.9043 108.324 59.7396 107.486 59.5C106.647 59.2604 105.898 58.9011 105.24 58.4219L105.509 58.1973C105.12 58.2871 104.73 58.4069 104.341 58.5567C103.952 58.7064 103.578 58.8711 103.218 59.0508C102.859 59.2305 102.469 59.3503 102.05 59.4102C101.631 59.4701 101.227 59.5299 100.837 59.5898L100.119 59.5L100.253 59.1856C99.8341 59.3053 99.3849 59.4551 98.9058 59.6348C98.4266 59.8144 97.9624 59.9043 97.5132 59.9043C97.2137 59.9043 96.7795 59.7995 96.2105 59.5898C95.6415 59.3802 95.0725 59.1257 94.5035 58.8262C93.9345 58.5267 93.4254 58.1973 92.9762 57.8379C92.527 57.4786 92.3024 57.1342 92.3024 56.8048L92.3923 56.67C92.2425 56.4903 92.0479 56.3256 91.8083 56.1759C91.5687 56.0261 91.3441 55.8764 91.1345 55.7267C90.9248 55.5769 90.7302 55.4122 90.5505 55.2325C90.3708 55.0528 90.296 54.8432 90.3259 54.6036L90.82 54.1994L89.7868 54.0646L89.4275 52.717C89.4874 52.8667 89.6221 52.9266 89.8318 52.8966C90.0414 52.8667 90.2061 52.8068 90.3259 52.717L88.7088 51.8635L89.8318 48.9885C89.4125 47.4313 89.3077 46.2334 89.5173 45.3949C89.727 44.5564 90.1312 43.8676 90.7302 43.3285C91.3291 42.7895 91.988 42.2504 92.7067 41.7114C93.4254 41.1723 94.1591 40.4386 94.9078 39.5103L94.7731 38.9712L97.7378 35.3776L98.4116 35.2877C99.2502 35.2877 100.193 35.2578 101.242 35.1979C102.29 35.138 103.353 35.0332 104.431 34.8834C105.509 34.7337 106.572 34.584 107.62 34.4342C108.669 34.2845 109.627 34.0898 110.495 33.8503C109.537 32.7123 108.534 31.6342 107.486 30.616C106.437 29.5978 105.314 28.6245 104.117 27.6961C103.787 27.8159 103.383 27.9806 102.904 28.1902C102.425 28.3999 101.945 28.6694 101.466 28.9988C100.987 29.3282 100.613 29.6876 100.343 30.0769C100.074 30.4662 99.909 30.8705 99.8491 31.2898L100.119 32.1433C99.5796 33.0117 98.9806 33.5508 98.3218 33.7604C97.663 33.97 96.9891 34.0898 96.3004 34.1198C95.6116 34.1497 94.8928 34.1497 94.1442 34.1198C93.3955 34.0898 92.6768 34.2246 91.988 34.5241L91.2692 32.9968L91.943 30.3914L91.1794 29.2683L98.9507 26.8426C98.6213 26.0041 98.0822 25.3752 97.3335 24.9559C96.5849 24.5367 95.7613 24.3271 94.8629 24.3271V23.8778L97.3785 23.4736C94.5934 22.096 91.7035 21.0478 88.7088 20.3291C85.714 19.6104 82.6445 19.251 79.5 19.251C76.8946 19.251 74.3191 19.5056 71.7736 20.0147C69.2281 20.5238 66.7725 21.2575 64.4066 22.2158C62.0408 23.1741 59.7498 24.372 57.5338 25.8094C55.3177 27.2469 53.2962 28.864 51.4695 30.6609C52.2481 30.6609 52.847 30.8555 53.2663 31.2448C53.6855 31.6342 54.0749 32.0684 54.4342 32.5476C54.7936 33.0267 55.1679 33.4609 55.5572 33.8503C55.9466 34.2396 56.4706 34.4492 57.1295 34.4791L57.8482 33.9401L57.7584 32.9518L59.2407 30.8406L58.0728 27.5164C58.2225 27.4266 58.4471 27.2768 58.7466 27.0672C59.0461 26.8576 59.3006 26.7528 59.5103 26.7528C60.4087 26.7528 61.0975 26.7977 61.5766 26.8875C62.0558 26.9774 62.475 27.1421 62.8344 27.3817C63.1938 27.6212 63.5082 27.9656 63.7777 28.4148C64.0473 28.864 64.4665 29.433 65.0355 30.1218L66.6527 28.864C66.9521 28.9838 67.4313 29.1785 68.0901 29.448C68.749 29.7175 69.4228 30.047 70.1116 30.4363C70.8003 30.8256 71.3843 31.2299 71.8635 31.6491C72.3426 32.0684 72.5972 32.4577 72.6271 32.8171C72.6271 33.2663 72.4624 33.6256 72.133 33.8952C71.8036 34.1647 71.3693 34.3893 70.8303 34.569C70.2912 34.7487 69.7372 34.8834 69.1682 34.9733C68.5992 35.0631 68.0302 35.1829 67.4612 35.3326C66.8922 35.4824 66.458 35.6321 66.1585 35.7818C65.8591 35.9316 65.6794 36.1861 65.6195 36.5455L68.2249 37.399C67.6259 37.9081 66.9821 38.3723 66.2933 38.7915C65.6045 39.2108 64.8858 39.6001 64.1371 39.9595L64.3168 40.7231L60.1841 42.3403V43.5981L59.8696 43.7328L60.0942 42.1606L59.9146 42.1157C59.7049 42.1157 59.5851 42.1606 59.5552 42.2504C59.5252 42.3403 59.5103 42.4451 59.5103 42.5649C59.5103 42.6847 59.5402 42.8045 59.6001 42.9242C59.66 43.044 59.675 43.1339 59.645 43.1938L59.0611 42.8793L59.1509 43.059C59.1509 43.1488 59.1958 43.2836 59.2857 43.4633C59.3755 43.643 59.4953 43.8077 59.645 43.9574C59.7948 44.1072 59.9146 44.2569 60.0044 44.4066C60.0942 44.5564 60.1541 44.6312 60.1841 44.6312C60.1841 44.7211 60.1242 44.8109 60.0044 44.9008C59.8846 44.9906 59.7349 45.0505 59.5552 45.0804C59.3755 45.1104 59.2557 45.1553 59.1958 45.2152C59.1359 45.2751 59.1359 45.2901 59.1958 45.2601C59.6151 45.2601 59.7049 45.2901 59.4653 45.35C59.2258 45.4099 58.8514 45.5596 58.3423 45.7992C57.8332 46.0387 57.369 46.3831 56.9498 46.8323C56.5305 47.2816 56.2909 47.9404 56.2311 48.8089C56.2311 49.318 56.246 49.8121 56.276 50.2912C56.3059 50.7704 56.2909 51.2645 56.2311 51.7736C55.8118 50.6356 55.1829 49.7672 54.3444 49.1682C53.5059 48.5693 52.4877 48.2698 51.2898 48.2698L49.3582 48.4495L50.3015 49.0784C49.7924 49.0185 49.2683 48.9586 48.7293 48.8987C48.1902 48.8388 47.6362 48.8238 47.0672 48.8538C46.4982 48.8837 45.9891 49.0035 45.5399 49.2131C45.0907 49.4228 44.6415 49.7372 44.1923 50.1565L43.9228 52.1779C43.9228 53.1362 44.1324 53.9149 44.5517 54.5138C44.9709 55.1127 45.7046 55.4272 46.7528 55.4571C47.6512 55.4571 48.5346 55.3224 49.4031 55.0528C50.2716 54.7833 51.1251 54.4689 51.9636 54.1095C51.6941 54.7683 51.3946 55.3972 51.0652 55.9962C50.7357 56.5951 50.4962 57.254 50.3464 57.9727L50.9304 58.2422C51.6491 57.7631 52.308 57.6882 52.9069 58.0176C53.5059 58.347 54.0898 58.8262 54.6588 59.4551C55.2278 60.084 55.8118 60.7278 56.4107 61.3867C57.0097 62.0455 57.6535 62.5247 58.3423 62.8241L56.815 63.6327L53.2214 61.6113C53.2513 61.6712 53.2813 61.8059 53.3112 62.0156C53.3412 62.2252 53.3262 62.2701 53.2663 62.1503L51.6491 59.4102C50.6908 59.3802 49.6726 59.2305 48.5945 58.9609C47.5164 58.6914 46.4234 58.3321 45.3153 57.8829C44.2073 57.4336 43.1741 56.9395 42.2158 56.4005C41.2575 55.8614 40.374 55.2924 39.5655 54.6935L39.251 59.5C39.251 63.1536 39.7451 66.7173 40.7334 70.1911C41.7216 73.665 43.1142 76.9292 44.911 79.9839C46.7079 83.0385 48.909 85.8236 51.5144 88.3391C54.1198 90.8547 57.0097 92.9959 60.1841 94.7628C60.0343 94.1339 60.0194 93.505 60.1392 92.8761C60.2589 92.2472 60.4087 91.6183 60.5884 90.9894C60.768 90.3606 60.9627 89.7317 61.1723 89.1028C61.382 88.4739 61.4868 87.83 61.4868 87.1712C61.4868 86.2129 61.337 85.2096 61.0376 84.1615C60.7381 83.1133 60.3787 82.0502 59.9595 80.9721C59.5402 79.894 59.076 78.8309 58.5669 77.7827C58.0578 76.7346 57.6535 75.7463 57.3541 74.818C57.0546 73.8896 56.815 73.0211 56.6353 72.2126C56.4557 71.404 56.5455 70.7002 56.9049 70.1013L56.2311 69.7868C56.4107 69.3676 56.6503 68.9633 56.9498 68.574C57.2493 68.1847 57.5637 67.7954 57.8931 67.4061C58.2225 67.0167 58.4771 66.5975 58.6568 66.1483C58.8365 65.6991 58.9413 65.2499 58.9712 64.8006C58.9712 64.5012 58.9113 64.1867 58.7915 63.8573C58.6717 63.5279 58.5669 63.2134 58.4771 62.914L59.4204 63.1386C59.9295 61.9706 60.6183 61.177 61.4868 60.7578C62.3552 60.3385 63.4483 60.1139 64.766 60.084C64.9157 60.084 65.2302 60.1439 65.7093 60.2637C66.1885 60.3834 66.6976 60.5481 67.2366 60.7578C67.7757 60.9674 68.2848 61.1321 68.7639 61.2519C69.2431 61.3717 69.6025 61.4915 69.842 61.6113C69.842 61.8209 69.9618 61.9557 70.2014 62.0156C70.441 62.0755 70.5757 62.1803 70.6057 62.33L70.5159 62.6894C70.6057 62.7193 70.8153 62.8241 71.1447 63.0038C71.4742 63.1835 71.8335 63.4081 72.2228 63.6776C72.6122 63.9472 72.9565 64.1867 73.256 64.3964C73.5555 64.606 73.7651 64.7707 73.8849 64.8905C74.424 64.8905 75.1577 65.0702 76.086 65.4295C77.0144 65.7889 78.0326 66.2381 79.1406 66.7772C80.2487 67.3162 81.3418 67.9601 82.4198 68.7088C83.4979 69.4574 84.5162 70.2061 85.4745 70.9548C86.4328 71.7035 87.1665 72.4521 87.6756 73.2008C88.1847 73.9495 88.4841 74.6083 88.574 75.1773L87.0467 76.7945C87.1665 78.3218 87.0617 79.4897 86.7322 80.2983C86.4028 81.1069 85.8937 81.7807 85.2049 82.3197C84.5162 82.8588 83.7225 83.308 82.8241 83.6674C81.9257 84.0267 80.9524 84.5358 79.9043 85.1947C79.9043 85.7936 79.7546 86.4375 79.4551 87.1263C79.1556 87.815 78.7813 88.4739 78.3321 89.1028C77.8829 89.7317 77.3438 90.2557 76.7149 90.675C76.086 91.0943 75.4571 91.3039 74.8282 91.3039L72.9416 89.8664C73.0015 89.9263 73.0015 90.0311 72.9416 90.1809C72.8817 90.3306 72.8068 90.3606 72.717 90.2707C73.0164 90.8397 73.0913 91.4986 72.9416 92.2472C72.7918 92.9959 72.5373 93.7596 72.1779 94.5382C71.8186 95.3168 71.4143 96.0505 70.9651 96.7393C70.5159 97.4281 70.1116 98.0121 69.7522 98.4912C71.3693 98.9105 72.9865 99.2249 74.6036 99.4345C76.2208 99.6442 77.8529 99.749 79.5 99.749Z"/>
</mask>
<path d="M55.7818 53.1662C56.1712 53.1662 56.6054 53.2261 57.0845 53.3459C57.5637 53.4656 58.0429 53.6304 58.522 53.84C59.0012 54.0496 59.4803 54.2443 59.9595 54.424C60.4386 54.6036 60.8729 54.7833 61.2622 54.963L60.5434 55.0528C60.3039 55.0828 60.0493 55.0978 59.7798 55.0978C59.2707 55.0978 58.8065 55.0229 58.3872 54.8732C57.968 54.7234 57.5787 54.5288 57.2193 54.2892C56.8599 54.0496 56.5006 53.8699 56.1412 53.7501C55.7818 53.6304 55.4524 53.5405 55.153 53.4806C54.8535 53.4806 54.584 53.5405 54.3444 53.6603C54.1048 53.7801 53.8652 53.9149 53.6256 54.0646C53.6256 53.9448 53.5208 53.8849 53.3112 53.8849C53.5208 53.6753 53.9101 53.5106 54.4791 53.3908C55.0481 53.271 55.4824 53.1961 55.7818 53.1662ZM61.8461 55.1876C63.074 55.1876 64.197 55.3972 65.2152 55.8165C64.7959 55.9662 64.3767 56.086 63.9574 56.1759C63.5382 56.2657 63.1039 56.3256 62.6547 56.3555C62.0558 56.3555 61.5167 56.2957 61.0376 56.1759C61.1873 55.9363 61.337 55.7866 61.4868 55.7267C61.6365 55.6668 61.7563 55.4871 61.8461 55.1876ZM79.5 13.5012C83.7225 13.5012 87.7804 14.0552 91.6735 15.1632C95.5667 16.2713 99.2202 17.8135 102.634 19.7901C106.048 21.7666 109.163 24.1773 111.978 27.0223C114.793 29.8673 117.189 32.9668 119.165 36.3209C121.142 39.675 122.699 43.3285 123.837 47.2816C124.975 51.2346 125.529 55.3074 125.499 59.5C125.499 63.7225 124.945 67.7804 123.837 71.6735C122.729 75.5667 121.186 79.2202 119.21 82.6342C117.233 86.0482 114.823 89.1627 111.978 91.9777C109.133 94.7927 106.033 97.1885 102.679 99.165C99.325 101.142 95.6715 102.699 91.7184 103.837C87.7654 104.975 83.6926 105.529 79.5 105.499C75.2775 105.499 71.2196 104.945 67.3265 103.837C63.4333 102.729 59.7798 101.186 56.3658 99.2099C52.9518 97.2334 49.8373 94.8227 47.0223 91.9777C44.2073 89.1327 41.8115 86.0332 39.835 82.6791C37.8585 79.325 36.3012 75.6715 35.1632 71.7184C34.0252 67.7654 33.4712 63.6926 33.5012 59.5C33.5012 55.2775 34.0552 51.2196 35.1632 47.3265C36.2713 43.4333 37.8135 39.7798 39.7901 36.3658C41.7666 32.9518 44.1773 29.8373 47.0223 27.0223C49.8673 24.2073 52.9668 21.8115 56.3209 19.835C59.675 17.8585 63.3285 16.3012 67.2816 15.1632C71.2346 14.0252 75.3074 13.4712 79.5 13.5012ZM113.73 38.4322C113.31 37.7733 112.891 37.1444 112.472 36.5455C112.053 35.9466 111.618 35.3326 111.169 34.7037C111.109 34.9733 111.034 35.1679 110.945 35.2877C110.855 35.4075 110.795 35.677 110.765 36.0963C110.765 36.3658 110.87 36.6204 111.079 36.8599C111.289 37.0995 111.558 37.3391 111.888 37.5787C112.217 37.8183 112.547 37.9979 112.876 38.1177C113.206 38.2375 113.49 38.3423 113.73 38.4322ZM110.63 34.0299C110.63 34.2695 110.585 34.4342 110.495 34.5241H110.765C110.885 34.5241 110.974 34.539 111.034 34.569L110.63 34.0299ZM79.5 99.749C82.914 99.749 86.2531 99.3148 89.5173 98.4463C92.7816 97.5778 95.8661 96.35 98.771 94.7628C101.676 93.1756 104.371 91.229 106.857 88.9231C109.342 86.6172 111.514 84.0417 113.37 81.1967C112.981 80.2983 112.607 79.3849 112.247 78.4566C111.888 77.5282 111.708 76.5699 111.708 75.5816C111.708 74.5035 111.753 73.6351 111.843 72.9762C111.933 72.3174 112.038 71.7334 112.157 71.2243C112.277 70.7152 112.337 70.281 112.337 69.9216C112.337 69.5622 112.292 69.0981 112.202 68.5291C112.112 67.9601 111.858 67.3462 111.439 66.6873C111.019 66.0285 110.465 65.1001 109.777 63.9022C109.807 63.6926 109.851 63.4081 109.911 63.0487C109.971 62.6894 110.031 62.315 110.091 61.9257C110.151 61.5364 110.166 61.177 110.136 60.8476C110.106 60.5182 110.031 60.2337 109.911 59.9941C109.133 59.9043 108.324 59.7396 107.486 59.5C106.647 59.2604 105.898 58.9011 105.24 58.4219L105.509 58.1973C105.12 58.2871 104.73 58.4069 104.341 58.5567C103.952 58.7064 103.578 58.8711 103.218 59.0508C102.859 59.2305 102.469 59.3503 102.05 59.4102C101.631 59.4701 101.227 59.5299 100.837 59.5898L100.119 59.5L100.253 59.1856C99.8341 59.3053 99.3849 59.4551 98.9058 59.6348C98.4266 59.8144 97.9624 59.9043 97.5132 59.9043C97.2137 59.9043 96.7795 59.7995 96.2105 59.5898C95.6415 59.3802 95.0725 59.1257 94.5035 58.8262C93.9345 58.5267 93.4254 58.1973 92.9762 57.8379C92.527 57.4786 92.3024 57.1342 92.3024 56.8048L92.3923 56.67C92.2425 56.4903 92.0479 56.3256 91.8083 56.1759C91.5687 56.0261 91.3441 55.8764 91.1345 55.7267C90.9248 55.5769 90.7302 55.4122 90.5505 55.2325C90.3708 55.0528 90.296 54.8432 90.3259 54.6036L90.82 54.1994L89.7868 54.0646L89.4275 52.717C89.4874 52.8667 89.6221 52.9266 89.8318 52.8966C90.0414 52.8667 90.2061 52.8068 90.3259 52.717L88.7088 51.8635L89.8318 48.9885C89.4125 47.4313 89.3077 46.2334 89.5173 45.3949C89.727 44.5564 90.1312 43.8676 90.7302 43.3285C91.3291 42.7895 91.988 42.2504 92.7067 41.7114C93.4254 41.1723 94.1591 40.4386 94.9078 39.5103L94.7731 38.9712L97.7378 35.3776L98.4116 35.2877C99.2502 35.2877 100.193 35.2578 101.242 35.1979C102.29 35.138 103.353 35.0332 104.431 34.8834C105.509 34.7337 106.572 34.584 107.62 34.4342C108.669 34.2845 109.627 34.0898 110.495 33.8503C109.537 32.7123 108.534 31.6342 107.486 30.616C106.437 29.5978 105.314 28.6245 104.117 27.6961C103.787 27.8159 103.383 27.9806 102.904 28.1902C102.425 28.3999 101.945 28.6694 101.466 28.9988C100.987 29.3282 100.613 29.6876 100.343 30.0769C100.074 30.4662 99.909 30.8705 99.8491 31.2898L100.119 32.1433C99.5796 33.0117 98.9806 33.5508 98.3218 33.7604C97.663 33.97 96.9891 34.0898 96.3004 34.1198C95.6116 34.1497 94.8928 34.1497 94.1442 34.1198C93.3955 34.0898 92.6768 34.2246 91.988 34.5241L91.2692 32.9968L91.943 30.3914L91.1794 29.2683L98.9507 26.8426C98.6213 26.0041 98.0822 25.3752 97.3335 24.9559C96.5849 24.5367 95.7613 24.3271 94.8629 24.3271V23.8778L97.3785 23.4736C94.5934 22.096 91.7035 21.0478 88.7088 20.3291C85.714 19.6104 82.6445 19.251 79.5 19.251C76.8946 19.251 74.3191 19.5056 71.7736 20.0147C69.2281 20.5238 66.7725 21.2575 64.4066 22.2158C62.0408 23.1741 59.7498 24.372 57.5338 25.8094C55.3177 27.2469 53.2962 28.864 51.4695 30.6609C52.2481 30.6609 52.847 30.8555 53.2663 31.2448C53.6855 31.6342 54.0749 32.0684 54.4342 32.5476C54.7936 33.0267 55.1679 33.4609 55.5572 33.8503C55.9466 34.2396 56.4706 34.4492 57.1295 34.4791L57.8482 33.9401L57.7584 32.9518L59.2407 30.8406L58.0728 27.5164C58.2225 27.4266 58.4471 27.2768 58.7466 27.0672C59.0461 26.8576 59.3006 26.7528 59.5103 26.7528C60.4087 26.7528 61.0975 26.7977 61.5766 26.8875C62.0558 26.9774 62.475 27.1421 62.8344 27.3817C63.1938 27.6212 63.5082 27.9656 63.7777 28.4148C64.0473 28.864 64.4665 29.433 65.0355 30.1218L66.6527 28.864C66.9521 28.9838 67.4313 29.1785 68.0901 29.448C68.749 29.7175 69.4228 30.047 70.1116 30.4363C70.8003 30.8256 71.3843 31.2299 71.8635 31.6491C72.3426 32.0684 72.5972 32.4577 72.6271 32.8171C72.6271 33.2663 72.4624 33.6256 72.133 33.8952C71.8036 34.1647 71.3693 34.3893 70.8303 34.569C70.2912 34.7487 69.7372 34.8834 69.1682 34.9733C68.5992 35.0631 68.0302 35.1829 67.4612 35.3326C66.8922 35.4824 66.458 35.6321 66.1585 35.7818C65.8591 35.9316 65.6794 36.1861 65.6195 36.5455L68.2249 37.399C67.6259 37.9081 66.9821 38.3723 66.2933 38.7915C65.6045 39.2108 64.8858 39.6001 64.1371 39.9595L64.3168 40.7231L60.1841 42.3403V43.5981L59.8696 43.7328L60.0942 42.1606L59.9146 42.1157C59.7049 42.1157 59.5851 42.1606 59.5552 42.2504C59.5252 42.3403 59.5103 42.4451 59.5103 42.5649C59.5103 42.6847 59.5402 42.8045 59.6001 42.9242C59.66 43.044 59.675 43.1339 59.645 43.1938L59.0611 42.8793L59.1509 43.059C59.1509 43.1488 59.1958 43.2836 59.2857 43.4633C59.3755 43.643 59.4953 43.8077 59.645 43.9574C59.7948 44.1072 59.9146 44.2569 60.0044 44.4066C60.0942 44.5564 60.1541 44.6312 60.1841 44.6312C60.1841 44.7211 60.1242 44.8109 60.0044 44.9008C59.8846 44.9906 59.7349 45.0505 59.5552 45.0804C59.3755 45.1104 59.2557 45.1553 59.1958 45.2152C59.1359 45.2751 59.1359 45.2901 59.1958 45.2601C59.6151 45.2601 59.7049 45.2901 59.4653 45.35C59.2258 45.4099 58.8514 45.5596 58.3423 45.7992C57.8332 46.0387 57.369 46.3831 56.9498 46.8323C56.5305 47.2816 56.2909 47.9404 56.2311 48.8089C56.2311 49.318 56.246 49.8121 56.276 50.2912C56.3059 50.7704 56.2909 51.2645 56.2311 51.7736C55.8118 50.6356 55.1829 49.7672 54.3444 49.1682C53.5059 48.5693 52.4877 48.2698 51.2898 48.2698L49.3582 48.4495L50.3015 49.0784C49.7924 49.0185 49.2683 48.9586 48.7293 48.8987C48.1902 48.8388 47.6362 48.8238 47.0672 48.8538C46.4982 48.8837 45.9891 49.0035 45.5399 49.2131C45.0907 49.4228 44.6415 49.7372 44.1923 50.1565L43.9228 52.1779C43.9228 53.1362 44.1324 53.9149 44.5517 54.5138C44.9709 55.1127 45.7046 55.4272 46.7528 55.4571C47.6512 55.4571 48.5346 55.3224 49.4031 55.0528C50.2716 54.7833 51.1251 54.4689 51.9636 54.1095C51.6941 54.7683 51.3946 55.3972 51.0652 55.9962C50.7357 56.5951 50.4962 57.254 50.3464 57.9727L50.9304 58.2422C51.6491 57.7631 52.308 57.6882 52.9069 58.0176C53.5059 58.347 54.0898 58.8262 54.6588 59.4551C55.2278 60.084 55.8118 60.7278 56.4107 61.3867C57.0097 62.0455 57.6535 62.5247 58.3423 62.8241L56.815 63.6327L53.2214 61.6113C53.2513 61.6712 53.2813 61.8059 53.3112 62.0156C53.3412 62.2252 53.3262 62.2701 53.2663 62.1503L51.6491 59.4102C50.6908 59.3802 49.6726 59.2305 48.5945 58.9609C47.5164 58.6914 46.4234 58.3321 45.3153 57.8829C44.2073 57.4336 43.1741 56.9395 42.2158 56.4005C41.2575 55.8614 40.374 55.2924 39.5655 54.6935L39.251 59.5C39.251 63.1536 39.7451 66.7173 40.7334 70.1911C41.7216 73.665 43.1142 76.9292 44.911 79.9839C46.7079 83.0385 48.909 85.8236 51.5144 88.3391C54.1198 90.8547 57.0097 92.9959 60.1841 94.7628C60.0343 94.1339 60.0194 93.505 60.1392 92.8761C60.2589 92.2472 60.4087 91.6183 60.5884 90.9894C60.768 90.3606 60.9627 89.7317 61.1723 89.1028C61.382 88.4739 61.4868 87.83 61.4868 87.1712C61.4868 86.2129 61.337 85.2096 61.0376 84.1615C60.7381 83.1133 60.3787 82.0502 59.9595 80.9721C59.5402 79.894 59.076 78.8309 58.5669 77.7827C58.0578 76.7346 57.6535 75.7463 57.3541 74.818C57.0546 73.8896 56.815 73.0211 56.6353 72.2126C56.4557 71.404 56.5455 70.7002 56.9049 70.1013L56.2311 69.7868C56.4107 69.3676 56.6503 68.9633 56.9498 68.574C57.2493 68.1847 57.5637 67.7954 57.8931 67.4061C58.2225 67.0167 58.4771 66.5975 58.6568 66.1483C58.8365 65.6991 58.9413 65.2499 58.9712 64.8006C58.9712 64.5012 58.9113 64.1867 58.7915 63.8573C58.6717 63.5279 58.5669 63.2134 58.4771 62.914L59.4204 63.1386C59.9295 61.9706 60.6183 61.177 61.4868 60.7578C62.3552 60.3385 63.4483 60.1139 64.766 60.084C64.9157 60.084 65.2302 60.1439 65.7093 60.2637C66.1885 60.3834 66.6976 60.5481 67.2366 60.7578C67.7757 60.9674 68.2848 61.1321 68.7639 61.2519C69.2431 61.3717 69.6025 61.4915 69.842 61.6113C69.842 61.8209 69.9618 61.9557 70.2014 62.0156C70.441 62.0755 70.5757 62.1803 70.6057 62.33L70.5159 62.6894C70.6057 62.7193 70.8153 62.8241 71.1447 63.0038C71.4742 63.1835 71.8335 63.4081 72.2228 63.6776C72.6122 63.9472 72.9565 64.1867 73.256 64.3964C73.5555 64.606 73.7651 64.7707 73.8849 64.8905C74.424 64.8905 75.1577 65.0702 76.086 65.4295C77.0144 65.7889 78.0326 66.2381 79.1406 66.7772C80.2487 67.3162 81.3418 67.9601 82.4198 68.7088C83.4979 69.4574 84.5162 70.2061 85.4745 70.9548C86.4328 71.7035 87.1665 72.4521 87.6756 73.2008C88.1847 73.9495 88.4841 74.6083 88.574 75.1773L87.0467 76.7945C87.1665 78.3218 87.0617 79.4897 86.7322 80.2983C86.4028 81.1069 85.8937 81.7807 85.2049 82.3197C84.5162 82.8588 83.7225 83.308 82.8241 83.6674C81.9257 84.0267 80.9524 84.5358 79.9043 85.1947C79.9043 85.7936 79.7546 86.4375 79.4551 87.1263C79.1556 87.815 78.7813 88.4739 78.3321 89.1028C77.8829 89.7317 77.3438 90.2557 76.7149 90.675C76.086 91.0943 75.4571 91.3039 74.8282 91.3039L72.9416 89.8664C73.0015 89.9263 73.0015 90.0311 72.9416 90.1809C72.8817 90.3306 72.8068 90.3606 72.717 90.2707C73.0164 90.8397 73.0913 91.4986 72.9416 92.2472C72.7918 92.9959 72.5373 93.7596 72.1779 94.5382C71.8186 95.3168 71.4143 96.0505 70.9651 96.7393C70.5159 97.4281 70.1116 98.0121 69.7522 98.4912C71.3693 98.9105 72.9865 99.2249 74.6036 99.4345C76.2208 99.6442 77.8529 99.749 79.5 99.749Z" fill="#286892" stroke="white" stroke-width="0.015625" mask="url(#path-2-inside-1_73_39)"/>
</svg>
