<svg width="331" height="149" viewBox="0 0 331 149" fill="none" xmlns="http://www.w3.org/2000/svg">
<g clip-path="url(#clip0_190_51)">
<path d="M117.455 9H31.5455C25.0356 9 18.7924 11.5687 14.1892 16.141C9.58603 20.7133 7 26.9147 7 33.381V82.1429C7 88.6091 9.58603 94.8105 14.1892 99.3828C18.7924 103.955 25.0356 106.524 31.5455 106.524H105.182L142 137V33.381C142 26.9147 139.414 20.7133 134.811 16.141C130.208 11.5687 123.964 9 117.455 9Z" fill="#E6E9E9" stroke="#E6E9E9" stroke-width="10"/>
<path d="M167.161 58V21.6364H174.849V51.6612H190.438V58H167.161ZM212.877 46.3878V30.7273H220.441V58H213.179V53.0462H212.895C212.279 54.6442 211.255 55.9285 209.823 56.8991C208.403 57.8698 206.668 58.3551 204.621 58.3551C202.798 58.3551 201.194 57.9408 199.809 57.1122C198.424 56.2836 197.341 55.1058 196.559 53.5788C195.79 52.0518 195.399 50.223 195.388 48.0923V30.7273H202.952V46.7429C202.963 48.3527 203.395 49.6252 204.248 50.5604C205.1 51.4955 206.242 51.9631 207.675 51.9631C208.586 51.9631 209.438 51.7559 210.231 51.3416C211.024 50.9155 211.664 50.2881 212.149 49.4595C212.646 48.6309 212.889 47.607 212.877 46.3878ZM226.491 58V30.7273H233.7V35.5391H234.02C234.588 33.9411 235.535 32.6804 236.86 31.7571C238.186 30.8338 239.772 30.3722 241.619 30.3722C243.489 30.3722 245.081 30.8397 246.395 31.7749C247.709 32.6982 248.585 33.9529 249.023 35.5391H249.307C249.864 33.9766 250.87 32.7277 252.326 31.7926C253.793 30.8456 255.528 30.3722 257.528 30.3722C260.073 30.3722 262.139 31.183 263.725 32.8047C265.323 34.4145 266.122 36.6991 266.122 39.6584V58H258.576V41.1499C258.576 39.6347 258.173 38.4983 257.368 37.7408C256.563 36.9832 255.557 36.6044 254.35 36.6044C252.977 36.6044 251.905 37.0424 251.136 37.9183C250.367 38.7824 249.982 39.9247 249.982 41.3452V58H242.649V40.9901C242.649 39.6525 242.264 38.5871 241.495 37.794C240.737 37.0009 239.737 36.6044 238.494 36.6044C237.654 36.6044 236.896 36.8175 236.221 37.2436C235.558 37.6579 235.032 38.2438 234.641 39.0014C234.25 39.7472 234.055 40.6231 234.055 41.6293V58H226.491ZM284.419 58.5327C281.661 58.5327 279.276 57.9467 277.263 56.7749C275.263 55.5911 273.718 53.9458 272.629 51.8388C271.54 49.7199 270.996 47.2637 270.996 44.4702C270.996 41.6529 271.54 39.1908 272.629 37.0838C273.718 34.965 275.263 33.3196 277.263 32.1477C279.276 30.964 281.661 30.3722 284.419 30.3722C287.177 30.3722 289.556 30.964 291.557 32.1477C293.569 33.3196 295.12 34.965 296.209 37.0838C297.298 39.1908 297.842 41.6529 297.842 44.4702C297.842 47.2637 297.298 49.7199 296.209 51.8388C295.12 53.9458 293.569 55.5911 291.557 56.7749C289.556 57.9467 287.177 58.5327 284.419 58.5327ZM284.455 52.6733C285.709 52.6733 286.757 52.3182 287.597 51.608C288.438 50.8859 289.071 49.9034 289.497 48.6605C289.935 47.4176 290.154 46.0031 290.154 44.4169C290.154 42.8307 289.935 41.4162 289.497 40.1733C289.071 38.9304 288.438 37.9479 287.597 37.2259C286.757 36.5038 285.709 36.1428 284.455 36.1428C283.188 36.1428 282.123 36.5038 281.259 37.2259C280.406 37.9479 279.761 38.9304 279.323 40.1733C278.897 41.4162 278.684 42.8307 278.684 44.4169C278.684 46.0031 278.897 47.4176 279.323 48.6605C279.761 49.9034 280.406 50.8859 281.259 51.608C282.123 52.3182 283.188 52.6733 284.455 52.6733ZM310.325 42.233V58H302.761V30.7273H309.969V35.5391H310.289C310.893 33.9529 311.905 32.6982 313.325 31.7749C314.746 30.8397 316.468 30.3722 318.492 30.3722C320.386 30.3722 322.037 30.7865 323.446 31.6151C324.855 32.4437 325.95 33.6274 326.731 35.1662C327.512 36.6932 327.903 38.5161 327.903 40.6349V58H320.339V41.9844C320.351 40.3153 319.924 39.0133 319.06 38.0781C318.196 37.1312 317.007 36.6577 315.491 36.6577C314.473 36.6577 313.574 36.8767 312.793 37.3146C312.023 37.7526 311.42 38.3918 310.982 39.2322C310.555 40.0608 310.336 41.0611 310.325 42.233ZM199.245 95.3672H191.468C191.326 94.361 191.036 93.4673 190.598 92.6861C190.16 91.893 189.598 91.2183 188.911 90.6619C188.225 90.1056 187.432 89.6794 186.532 89.3835C185.644 89.0876 184.679 88.9396 183.638 88.9396C181.756 88.9396 180.116 89.4072 178.719 90.3423C177.323 91.2656 176.24 92.6151 175.47 94.3906C174.701 96.1544 174.316 98.2969 174.316 100.818C174.316 103.411 174.701 105.589 175.47 107.352C176.251 109.116 177.34 110.448 178.737 111.347C180.134 112.247 181.75 112.697 183.585 112.697C184.614 112.697 185.567 112.561 186.443 112.288C187.331 112.016 188.118 111.62 188.805 111.099C189.491 110.566 190.059 109.921 190.509 109.163C190.971 108.406 191.29 107.542 191.468 106.571L199.245 106.607C199.044 108.276 198.541 109.885 197.736 111.436C196.943 112.975 195.871 114.354 194.522 115.573C193.184 116.781 191.586 117.739 189.728 118.45C187.881 119.148 185.792 119.497 183.46 119.497C180.217 119.497 177.317 118.763 174.76 117.295C172.215 115.828 170.203 113.703 168.723 110.921C167.255 108.139 166.521 104.772 166.521 100.818C166.521 96.8527 167.267 93.4792 168.759 90.6974C170.25 87.9157 172.274 85.7969 174.831 84.3409C177.388 82.8731 180.264 82.1392 183.46 82.1392C185.567 82.1392 187.52 82.4351 189.32 83.027C191.131 83.6188 192.735 84.483 194.131 85.6193C195.528 86.7438 196.665 88.1229 197.54 89.7564C198.428 91.3899 198.996 93.2602 199.245 95.3672ZM212.18 103.233V119H204.616V82.6364H211.967V96.5391H212.287C212.902 94.9292 213.896 93.6686 215.27 92.7571C216.643 91.8338 218.365 91.3722 220.436 91.3722C222.33 91.3722 223.982 91.7865 225.39 92.6151C226.811 93.4318 227.912 94.6096 228.693 96.1484C229.486 97.6754 229.877 99.5043 229.865 101.635V119H222.301V102.984C222.313 101.304 221.886 99.9955 221.022 99.0604C220.17 98.1252 218.975 97.6577 217.436 97.6577C216.406 97.6577 215.494 97.8767 214.701 98.3146C213.92 98.7526 213.305 99.3918 212.855 100.232C212.417 101.061 212.192 102.061 212.18 103.233ZM243.594 119.515C241.854 119.515 240.304 119.213 238.942 118.609C237.581 117.994 236.504 117.088 235.711 115.893C234.93 114.685 234.539 113.182 234.539 111.383C234.539 109.868 234.817 108.595 235.373 107.565C235.93 106.536 236.687 105.707 237.646 105.08C238.605 104.452 239.694 103.979 240.913 103.659C242.144 103.339 243.434 103.115 244.784 102.984C246.37 102.819 247.648 102.665 248.619 102.523C249.59 102.369 250.294 102.144 250.732 101.848C251.17 101.552 251.389 101.114 251.389 100.534V100.428C251.389 99.303 251.034 98.433 250.324 97.8175C249.625 97.2019 248.631 96.8942 247.341 96.8942C245.979 96.8942 244.896 97.196 244.091 97.7997C243.287 98.3916 242.754 99.1373 242.493 100.037L235.498 99.4688C235.853 97.8116 236.551 96.3793 237.593 95.1719C238.635 93.9527 239.978 93.0175 241.623 92.3665C243.281 91.7036 245.198 91.3722 247.376 91.3722C248.891 91.3722 250.341 91.5497 251.726 91.9048C253.123 92.2599 254.36 92.8104 255.437 93.5561C256.526 94.3018 257.385 95.2607 258.012 96.4325C258.639 97.5926 258.953 98.9834 258.953 100.605V119H251.78V115.218H251.567C251.129 116.07 250.543 116.822 249.809 117.473C249.075 118.112 248.193 118.615 247.163 118.982C246.133 119.337 244.944 119.515 243.594 119.515ZM245.76 114.295C246.873 114.295 247.856 114.076 248.708 113.638C249.56 113.188 250.229 112.584 250.714 111.827C251.2 111.069 251.442 110.211 251.442 109.252V106.358C251.206 106.512 250.88 106.654 250.466 106.784C250.063 106.902 249.608 107.015 249.099 107.121C248.59 107.216 248.081 107.305 247.572 107.388C247.063 107.459 246.601 107.524 246.187 107.583C245.299 107.713 244.523 107.92 243.861 108.205C243.198 108.489 242.683 108.873 242.316 109.359C241.949 109.832 241.765 110.424 241.765 111.134C241.765 112.164 242.138 112.951 242.884 113.496C243.642 114.028 244.6 114.295 245.76 114.295ZM279.328 91.7273V97.4091H262.904V91.7273H279.328ZM266.632 85.1932H274.196V110.619C274.196 111.318 274.303 111.862 274.516 112.253C274.729 112.632 275.025 112.898 275.404 113.052C275.794 113.206 276.244 113.283 276.753 113.283C277.108 113.283 277.463 113.253 277.818 113.194C278.173 113.123 278.446 113.07 278.635 113.034L279.825 118.663C279.446 118.781 278.913 118.917 278.227 119.071C277.54 119.237 276.706 119.337 275.723 119.373C273.9 119.444 272.302 119.201 270.929 118.645C269.568 118.089 268.508 117.224 267.751 116.053C266.993 114.881 266.62 113.401 266.632 111.614V85.1932Z" fill="#E6E9E9"/>
<path d="M73.6548 31.5666C73.8313 31.387 74.041 31.2445 74.2718 31.1473C74.5026 31.05 74.7501 31 75 31C75.2499 31 75.4974 31.05 75.7282 31.1473C75.959 31.2445 76.1687 31.387 76.3452 31.5666C77.337 32.5771 81.6956 37.1591 85.8186 43.1488C89.8846 49.0537 94 56.7097 94 63.7871C94 70.6523 91.8074 75.9941 88.2392 79.6196C84.6862 83.2335 79.9058 85 75 85C70.0942 85 65.3138 83.2335 61.7608 79.6196C58.1926 75.9941 56 70.6562 56 63.7871C56 56.7097 60.1154 49.0537 64.1814 43.1527C67.024 39.0359 70.1923 35.1611 73.6548 31.5666Z" fill="#184B90"/>
</g>
<defs>
<clipPath id="clip0_190_51">
<rect width="331" height="149" fill="white"/>
</clipPath>
</defs>
</svg>
