<svg viewBox="0 0 363 144" xmlns="http://www.w3.org/2000/svg">
<path d="M115.455 5H29.5455C23.0356 5 16.7924 7.5687 12.1892 12.141C7.58603 16.7133 5 22.9147 5 29.381V78.1429C5 84.6091 7.58603 90.8105 12.1892 95.3828C16.7924 99.9551 23.0356 102.524 29.5455 102.524H103.182L140 133V29.381C140 22.9147 137.414 16.7133 132.811 12.141C128.208 7.5687 121.964 5 115.455 5Z" class="logo-bg"/>
<path d="M165.161 54V17.6364H172.849V47.6612H188.438V54H165.161ZM210.877 42.3878V26.7273H218.441V54H211.179V49.0462H210.895C210.279 50.6442 209.255 51.9285 207.823 52.8991C206.403 53.8698 204.668 54.3551 202.621 54.3551C200.798 54.3551 199.194 53.9408 197.809 53.1122C196.424 52.2836 195.341 51.1058 194.559 49.5788C193.79 48.0518 193.399 46.223 193.388 44.0923V26.7273H200.952V42.7429C200.963 44.3527 201.395 45.6252 202.248 46.5604C203.1 47.4955 204.242 47.9631 205.675 47.9631C206.586 47.9631 207.438 47.7559 208.231 47.3416C209.024 46.9155 209.664 46.2881 210.149 45.4595C210.646 44.6309 210.889 43.607 210.877 42.3878ZM224.491 54V26.7273H231.7V31.5391H232.02C232.588 29.9411 233.535 28.6804 234.86 27.7571C236.186 26.8338 237.772 26.3722 239.619 26.3722C241.489 26.3722 243.081 26.8397 244.395 27.7749C245.709 28.6982 246.585 29.9529 247.023 31.5391H247.307C247.864 29.9766 248.87 28.7277 250.326 27.7926C251.793 26.8456 253.528 26.3722 255.528 26.3722C258.073 26.3722 260.139 27.183 261.725 28.8047C263.323 30.4145 264.122 32.6991 264.122 35.6584V54H256.576V37.1499C256.576 35.6347 256.173 34.4983 255.368 33.7408C254.563 32.9832 253.557 32.6044 252.35 32.6044C250.977 32.6044 249.905 33.0424 249.136 33.9183C248.367 34.7824 247.982 35.9247 247.982 37.3452V54H240.649V36.9901C240.649 35.6525 240.264 34.5871 239.495 33.794C238.737 33.0009 237.737 32.6044 236.494 32.6044C235.654 32.6044 234.896 32.8175 234.221 33.2436C233.558 33.6579 233.032 34.2438 232.641 35.0014C232.25 35.7472 232.055 36.6231 232.055 37.6293V54H224.491ZM282.419 54.5327C279.661 54.5327 277.276 53.9467 275.263 52.7749C273.263 51.5911 271.718 49.9458 270.629 47.8388C269.54 45.7199 268.996 43.2637 268.996 40.4702C268.996 37.6529 269.54 35.1908 270.629 33.0838C271.718 30.965 273.263 29.3196 275.263 28.1477C277.276 26.964 279.661 26.3722 282.419 26.3722C285.177 26.3722 287.556 26.964 289.557 28.1477C291.569 29.3196 293.12 30.965 294.209 33.0838C295.298 35.1908 295.842 37.6529 295.842 40.4702C295.842 43.2637 295.298 45.7199 294.209 47.8388C293.12 49.9458 291.569 51.5911 289.557 52.7749C287.556 53.9467 285.177 54.5327 282.419 54.5327ZM282.455 48.6733C283.709 48.6733 284.757 48.3182 285.597 47.608C286.438 46.8859 287.071 45.9034 287.497 44.6605C287.935 43.4176 288.154 42.0031 288.154 40.4169C288.154 38.8307 287.935 37.4162 287.497 36.1733C287.071 34.9304 286.438 33.9479 285.597 33.2259C284.757 32.5038 283.709 32.1428 282.455 32.1428C281.188 32.1428 280.123 32.5038 279.259 33.2259C278.406 33.9479 277.761 34.9304 277.323 36.1733C276.897 37.4162 276.684 38.8307 276.684 40.4169C276.684 42.0031 276.897 43.4176 277.323 44.6605C277.761 45.9034 278.406 46.8859 279.259 47.608C280.123 48.3182 281.188 48.6733 282.455 48.6733ZM308.325 38.233V54H300.761V26.7273H307.969V31.5391H308.289C308.893 29.9529 309.905 28.6982 311.325 27.7749C312.746 26.8397 314.468 26.3722 316.492 26.3722C318.386 26.3722 320.037 26.7865 321.446 27.6151C322.855 28.4437 323.95 29.6274 324.731 31.1662C325.512 32.6932 325.903 34.5161 325.903 36.6349V54H318.339V37.9844C318.351 36.3153 317.924 35.0133 317.06 34.0781C316.196 33.1312 315.007 32.6577 313.491 32.6577C312.473 32.6577 311.574 32.8767 310.793 33.3146C310.023 33.7526 309.42 34.3918 308.982 35.2322C308.555 36.0608 308.336 37.0611 308.325 38.233ZM197.245 91.3672H189.468C189.326 90.361 189.036 89.4673 188.598 88.6861C188.16 87.893 187.598 87.2183 186.911 86.6619C186.225 86.1056 185.432 85.6794 184.532 85.3835C183.644 85.0876 182.679 84.9396 181.638 84.9396C179.756 84.9396 178.116 85.4072 176.719 86.3423C175.323 87.2656 174.24 88.6151 173.47 90.3906C172.701 92.1544 172.316 94.2969 172.316 96.8182C172.316 99.4105 172.701 101.589 173.47 103.352C174.251 105.116 175.34 106.448 176.737 107.347C178.134 108.247 179.75 108.697 181.585 108.697C182.614 108.697 183.567 108.561 184.443 108.288C185.331 108.016 186.118 107.62 186.805 107.099C187.491 106.566 188.059 105.921 188.509 105.163C188.971 104.406 189.29 103.542 189.468 102.571L197.245 102.607C197.044 104.276 196.541 105.885 195.736 107.436C194.943 108.975 193.871 110.354 192.522 111.573C191.184 112.781 189.586 113.739 187.728 114.45C185.881 115.148 183.792 115.497 181.46 115.497C178.217 115.497 175.317 114.763 172.76 113.295C170.215 111.828 168.203 109.703 166.723 106.921C165.255 104.139 164.521 100.772 164.521 96.8182C164.521 92.8527 165.267 89.4792 166.759 86.6974C168.25 83.9157 170.274 81.7969 172.831 80.3409C175.388 78.8731 178.264 78.1392 181.46 78.1392C183.567 78.1392 185.52 78.4351 187.32 79.027C189.131 79.6188 190.735 80.483 192.131 81.6193C193.528 82.7438 194.665 84.1229 195.54 85.7564C196.428 87.3899 196.996 89.2602 197.245 91.3672ZM210.18 99.233V115H202.616V78.6364H209.967V92.5391H210.287C210.902 90.9292 211.896 89.6686 213.27 88.7571C214.643 87.8338 216.365 87.3722 218.436 87.3722C220.33 87.3722 221.982 87.7865 223.39 88.6151C224.811 89.4318 225.912 90.6096 226.693 92.1484C227.486 93.6754 227.877 95.5043 227.865 97.6349V115H220.301V98.9844C220.313 97.3035 219.886 95.9955 219.022 95.0604C218.17 94.1252 216.975 93.6577 215.436 93.6577C214.406 93.6577 213.494 93.8767 212.701 94.3146C211.92 94.7526 211.305 95.3918 210.855 96.2322C210.417 97.0608 210.192 98.0611 210.18 99.233ZM241.594 115.515C239.854 115.515 238.304 115.213 236.942 114.609C235.581 113.994 234.504 113.088 233.711 111.893C232.93 110.685 232.539 109.182 232.539 107.383C232.539 105.868 232.817 104.595 233.373 103.565C233.93 102.536 234.687 101.707 235.646 101.08C236.605 100.452 237.694 99.9787 238.913 99.6591C240.144 99.3395 241.434 99.1146 242.784 98.9844C244.37 98.8187 245.648 98.6648 246.619 98.5227C247.59 98.3688 248.294 98.1439 248.732 97.848C249.17 97.5521 249.389 97.1141 249.389 96.5341V96.4276C249.389 95.303 249.034 94.433 248.324 93.8175C247.625 93.2019 246.631 92.8942 245.341 92.8942C243.979 92.8942 242.896 93.196 242.091 93.7997C241.287 94.3916 240.754 95.1373 240.493 96.0369L233.498 95.4688C233.853 93.8116 234.551 92.3793 235.593 91.1719C236.635 89.9527 237.978 89.0175 239.623 88.3665C241.281 87.7036 243.198 87.3722 245.376 87.3722C246.891 87.3722 248.341 87.5497 249.726 87.9048C251.123 88.2599 252.36 88.8104 253.437 89.5561C254.526 90.3018 255.385 91.2607 256.012 92.4325C256.639 93.5926 256.953 94.9834 256.953 96.6051V115H249.78V111.218H249.567C249.129 112.07 248.543 112.822 247.809 113.473C247.075 114.112 246.193 114.615 245.163 114.982C244.133 115.337 242.944 115.515 241.594 115.515ZM243.76 110.295C244.873 110.295 245.856 110.076 246.708 109.638C247.56 109.188 248.229 108.584 248.714 107.827C249.2 107.069 249.442 106.211 249.442 105.252V102.358C249.206 102.512 248.88 102.654 248.466 102.784C248.063 102.902 247.608 103.015 247.099 103.121C246.59 103.216 246.081 103.305 245.572 103.388C245.063 103.459 244.601 103.524 244.187 103.583C243.299 103.713 242.523 103.92 241.861 104.205C241.198 104.489 240.683 104.873 240.316 105.359C239.949 105.832 239.765 106.424 239.765 107.134C239.765 108.164 240.138 108.951 240.884 109.496C241.642 110.028 242.6 110.295 243.76 110.295ZM277.328 87.7273V93.4091H260.904V87.7273H277.328ZM264.632 81.1932H272.196V106.619C272.196 107.318 272.303 107.862 272.516 108.253C272.729 108.632 273.025 108.898 273.404 109.052C273.794 109.206 274.244 109.283 274.753 109.283C275.108 109.283 275.463 109.253 275.818 109.194C276.173 109.123 276.446 109.07 276.635 109.034L277.825 114.663C277.446 114.781 276.913 114.917 276.227 115.071C275.54 115.237 274.706 115.337 273.723 115.373C271.9 115.444 270.302 115.201 268.929 114.645C267.568 114.089 266.508 113.224 265.751 112.053C264.993 110.881 264.62 109.401 264.632 107.614V81.1932Z" class="logo-text"/>
<path d="M71.6548 27.5666C71.8313 27.387 72.041 27.2445 72.2718 27.1473C72.5026 27.05 72.7501 27 73 27C73.2499 27 73.4974 27.05 73.7282 27.1473C73.959 27.2445 74.1687 27.387 74.3452 27.5666C75.337 28.5771 79.6956 33.1591 83.8186 39.1488C87.8846 45.0537 92 52.7097 92 59.7871C92 66.6523 89.8074 71.9941 86.2392 75.6196C82.6862 79.2335 77.9058 81 73 81C68.0942 81 63.3138 79.2335 59.7608 75.6196C56.1926 71.9941 54 66.6562 54 59.7871C54 52.7097 58.1154 45.0537 62.1814 39.1527C65.024 35.0359 68.1923 31.1611 71.6548 27.5666Z" class="logo-icon"/>
</svg>
