<svg width="62" height="62" viewBox="0 0 62 62" fill="none" xmlns="http://www.w3.org/2000/svg">
<circle cx="31" cy="31" r="31" fill="#184B90"/>
<path d="M19.75 23.125H36.625V19.375C36.625 17.8125 36.0781 16.4844 34.9844 15.3906C33.8906 14.2969 32.5625 13.75 31 13.75C29.4375 13.75 28.1094 14.2969 27.0156 15.3906C25.9219 16.4844 25.375 17.8125 25.375 19.375H21.625C21.625 16.7813 22.5394 14.5706 24.3681 12.7431C26.1969 10.9156 28.4075 10.0013 31 10C33.5925 9.99875 35.8037 10.9131 37.6337 12.7431C39.4637 14.5731 40.3775 16.7838 40.375 19.375V23.125H42.25C43.2812 23.125 44.1644 23.4925 44.8994 24.2275C45.6344 24.9625 46.0012 25.845 46 26.875V45.625C46 46.6562 45.6331 47.5394 44.8994 48.2744C44.1656 49.0094 43.2825 49.3762 42.25 49.375H19.75C18.7187 49.375 17.8362 49.0081 17.1025 48.2744C16.3687 47.5406 16.0012 46.6575 16 45.625V26.875C16 25.8438 16.3675 24.9613 17.1025 24.2275C17.8375 23.4938 18.72 23.1263 19.75 23.125ZM33.6494 38.8994C34.3831 38.1644 34.75 37.2813 34.75 36.25C34.75 35.2188 34.3831 34.3363 33.6494 33.6025C32.9156 32.8688 32.0325 32.5013 31 32.5C29.9675 32.4988 29.085 32.8663 28.3525 33.6025C27.62 34.3388 27.2525 35.2213 27.25 36.25C27.2475 37.2788 27.615 38.1619 28.3525 38.8994C29.09 39.6369 29.9725 40.0037 31 40C32.0275 39.9962 32.9106 39.6294 33.6494 38.8994Z" fill="white"/>
</svg>
