<svg xmlns="http://www.w3.org/2000/svg" fill="none" viewBox="0 0 48 48" id="Paper-Plane--Streamline-Ionic-Filled" height="48" width="48">
  <desc>
    Paper Plane Streamline Icon: https://streamlinehq.com
  </desc>
  <path fill="#000000" d="M46.7854 1.2186c-0.3436 -0.3435 -0.7791 -0.5804 -1.2541 -0.6821 -0.475 -0.1017 -0.9694 -0.0639 -1.4235 0.1088L2.1038 16.5436h-0.0084c-0.4843 0.1863 -0.8993 0.5176 -1.1883 0.9485 -0.289 0.431 -0.438 0.9406 -0.4265 1.4595 0.0115 0.5187 0.1829 1.0213 0.4906 1.439 0.3079 0.4177 0.7371 0.7303 1.2292 0.8949l0.043 0.0137 14.4168 6.1563c0.2812 0.0853 0.5799 0.0954 0.8663 0.0292 0.2862 -0.0661 0.5502 -0.2062 0.7654 -0.4062L41.4303 5.5184c0.069 -0.0689 0.1507 -0.1236 0.2408 -0.1609 0.0901 -0.0374 0.1867 -0.0566 0.2841 -0.0566 0.0976 0 0.1941 0.0192 0.2842 0.0566 0.09 0.0373 0.172 0.092 0.2409 0.1609 0.0689 0.069 0.1236 0.1508 0.1609 0.2409 0.0373 0.0901 0.0565 0.1866 0.0565 0.2841 0 0.0975 -0.0192 0.1941 -0.0565 0.2842 -0.0373 0.09 -0.092 0.1719 -0.1609 0.2408L20.9191 29.6962c-0.2 0.2153 -0.3401 0.4792 -0.4062 0.7656 -0.0662 0.2863 -0.0561 0.585 0.0292 0.8661l6.1584 14.4252c0.0063 0.0211 0.0126 0.04 0.02 0.0599 0.336 0.9733 1.1865 1.66 2.2145 1.7063h0.105c0.519 0.0029 1.0268 -0.1503 1.4575 -0.4397 0.4307 -0.2896 0.7643 -0.702 0.9575 -1.1837L47.3513 3.9035c0.1751 -0.4544 0.215 -0.9498 0.1145 -1.4263 -0.1005 -0.4764 -0.3368 -0.9136 -0.6804 -1.2586Z" stroke-width="1"></path>
</svg>