<svg width="40" height="36" viewBox="0 0 40 36" fill="none" xmlns="http://www.w3.org/2000/svg">
<path d="M33.6387 0.0018008C34.7554 0.0023272 35.8524 0.293868 36.8193 0.847141C37.7863 1.40041 38.5893 2.19594 39.1476 3.15382C39.7059 4.1117 39.9999 5.19822 40 6.30424C40.0001 7.41026 39.7064 8.49685 39.1484 9.45487L25.5105 32.8489C24.8813 33.9281 23.9431 34.7984 22.8146 35.3497C21.6862 35.901 20.418 36.1086 19.1704 35.9463C17.9228 35.784 16.7518 35.2591 15.8053 34.4379C14.8589 33.6167 14.1794 32.5361 13.8529 31.3325L11.1253 21.2563L27.0725 12.1365C27.4868 11.8959 27.7881 11.5029 27.9109 11.0431C28.0336 10.5834 27.9677 10.0942 27.7276 9.68234C27.4875 9.27049 27.0927 8.96941 26.6293 8.84481C26.1659 8.72021 25.6716 8.78219 25.2541 9.01724L9.30875 18.1353L1.8643 10.7605C0.974252 9.87912 0.368071 8.75612 0.122406 7.53352C-0.12326 6.31091 0.002623 5.04362 0.484137 3.89187C0.965651 2.74012 1.78117 1.75563 2.82759 1.06289C3.874 0.370154 5.10432 0.000266191 6.36298 0L33.6387 0.0018008Z" fill="white"/>
</svg>
