<svg width="15" height="20" viewBox="0 0 15 20" fill="none" xmlns="http://www.w3.org/2000/svg">
<path d="M7.5 0C8.69347 0 9.83807 0.474106 10.682 1.31802C11.5259 2.16193 12 3.30653 12 4.5V7.003C12.8064 7.03528 13.5691 7.37831 14.1283 7.96026C14.6875 8.5422 14.9999 9.31793 15 10.125V16.875C15 17.7038 14.6708 18.4987 14.0847 19.0847C13.4987 19.6708 12.7038 20 11.875 20H3.125C2.2962 20 1.50134 19.6708 0.915291 19.0847C0.32924 18.4987 0 17.7038 0 16.875V10.125C0.000128874 9.31793 0.3125 8.5422 0.871703 7.96026C1.43091 7.37831 2.19357 7.03528 3 7.003V4.5C3 3.30653 3.47411 2.16193 4.31802 1.31802C5.16193 0.474106 6.30653 0 7.5 0ZM7.5 12.25C7.16848 12.25 6.85054 12.3817 6.61612 12.6161C6.3817 12.8505 6.25 13.1685 6.25 13.5C6.25 13.8315 6.3817 14.1495 6.61612 14.3839C6.85054 14.6183 7.16848 14.75 7.5 14.75C7.83152 14.75 8.14946 14.6183 8.38388 14.3839C8.6183 14.1495 8.75 13.8315 8.75 13.5C8.75 13.1685 8.6183 12.8505 8.38388 12.6161C8.14946 12.3817 7.83152 12.25 7.5 12.25ZM7.5 1.25C6.63805 1.25 5.8114 1.59241 5.2019 2.2019C4.59241 2.8114 4.25 3.63805 4.25 4.5V7H10.75V4.5C10.75 3.63805 10.4076 2.8114 9.7981 2.2019C9.1886 1.59241 8.36195 1.25 7.5 1.25Z" fill="#90B2B4"/>
</svg>
