<svg width="20" height="20" viewBox="0 0 20 20" fill="none" xmlns="http://www.w3.org/2000/svg">
<path d="M4.84388 8.62308C4.92851 8.62308 5.02291 8.6361 5.12708 8.66214C5.23124 8.68818 5.3354 8.72399 5.43957 8.76956C5.54373 8.81513 5.6479 8.85745 5.75206 8.89651C5.85622 8.93557 5.95062 8.97464 6.03526 9.0137L5.87901 9.03323C5.82693 9.03974 5.77159 9.04299 5.713 9.04299C5.60232 9.04299 5.50141 9.02672 5.41027 8.99417C5.31913 8.96161 5.23449 8.9193 5.15637 8.86722C5.07825 8.81513 5.00013 8.77607 4.922 8.75003C4.84388 8.72399 4.77227 8.70446 4.70716 8.69144C4.64206 8.69144 4.58347 8.70446 4.53139 8.7305C4.47931 8.75654 4.42722 8.78584 4.37514 8.81839C4.37514 8.79235 4.35236 8.77933 4.30678 8.77933C4.35236 8.73376 4.43699 8.69795 4.56068 8.67191C4.68438 8.64587 4.77878 8.62959 4.84388 8.62308ZM6.16221 9.06252C6.42913 9.06252 6.67326 9.1081 6.89461 9.19924C6.80347 9.23179 6.71232 9.25783 6.62118 9.27736C6.53004 9.29689 6.43564 9.30991 6.33798 9.31642C6.20778 9.31642 6.09059 9.3034 5.98643 9.27736C6.01898 9.22528 6.05153 9.19273 6.08408 9.17971C6.11663 9.16669 6.14267 9.12763 6.16221 9.06252ZM10 0.000250394C10.9179 0.000250394 11.8001 0.12069 12.6464 0.361569C13.4928 0.602449 14.287 0.937727 15.0292 1.3674C15.7713 1.79708 16.4484 2.32116 17.0604 2.93963C17.6723 3.5581 18.1932 4.23192 18.6228 4.96106C19.0525 5.69021 19.391 6.48446 19.6384 7.34382C19.8858 8.20317 20.0063 9.08856 19.9998 10C19.9998 10.9179 19.8793 11.8001 19.6384 12.6464C19.3976 13.4928 19.0623 14.287 18.6326 15.0292C18.2029 15.7713 17.6788 16.4484 17.0604 17.0604C16.4419 17.6723 15.7681 18.1932 15.0389 18.6228C14.3098 19.0525 13.5155 19.391 12.6562 19.6384C11.7968 19.8858 10.9114 20.0063 10 19.9998C9.08206 19.9998 8.19991 19.8793 7.35358 19.6384C6.50725 19.3976 5.713 19.0623 4.97083 18.6326C4.22866 18.2029 3.55159 17.6788 2.93963 17.0604C2.32767 16.4419 1.80685 15.7681 1.37717 15.0389C0.947492 14.3098 0.608959 13.5155 0.361569 12.6562C0.11418 11.7968 -0.00625986 10.9114 0.000250394 10C0.000250394 9.08206 0.12069 8.19991 0.361569 7.35358C0.602449 6.50725 0.937727 5.713 1.3674 4.97083C1.79708 4.22866 2.32116 3.55159 2.93963 2.93963C3.5581 2.32767 4.23192 1.80685 4.96106 1.37717C5.69021 0.947492 6.48446 0.608959 7.34382 0.361569C8.20317 0.11418 9.08856 -0.00625986 10 0.000250394ZM17.4412 5.42004C17.3501 5.27681 17.2589 5.1401 17.1678 5.00989C17.0766 4.87969 16.9822 4.74623 16.8846 4.60951C16.8716 4.6681 16.8553 4.71042 16.8358 4.73646C16.8162 4.7625 16.8032 4.82109 16.7967 4.91224C16.7967 4.97083 16.8195 5.02617 16.8651 5.07825C16.9106 5.13033 16.9692 5.18241 17.0408 5.23449C17.1125 5.28658 17.1841 5.32564 17.2557 5.35168C17.3273 5.37772 17.3891 5.40051 17.4412 5.42004ZM16.7674 4.46303C16.7674 4.51511 16.7576 4.55092 16.7381 4.57045H16.7967C16.8227 4.57045 16.8423 4.5737 16.8553 4.58021L16.7674 4.46303ZM10 18.7498C10.7422 18.7498 11.4681 18.6554 12.1777 18.4666C12.8873 18.2778 13.5579 18.0109 14.1893 17.6658C14.8208 17.3208 15.4068 16.8976 15.9471 16.3963C16.4875 15.895 16.9595 15.3352 17.3631 14.7167C17.2785 14.5214 17.1971 14.3228 17.119 14.121C17.0408 13.9192 17.0018 13.7108 17.0018 13.496C17.0018 13.2616 17.0115 13.0728 17.0311 12.9296C17.0506 12.7864 17.0734 12.6594 17.0994 12.5488C17.1255 12.4381 17.1385 12.3437 17.1385 12.2656C17.1385 12.1874 17.1287 12.0865 17.1092 11.9628C17.0897 11.8391 17.0343 11.7057 16.9432 11.5625C16.852 11.4192 16.7316 11.2174 16.5819 10.957C16.5884 10.9114 16.5981 10.8496 16.6112 10.7715C16.6242 10.6933 16.6372 10.612 16.6502 10.5273C16.6632 10.4427 16.6665 10.3646 16.66 10.293C16.6535 10.2213 16.6372 10.1595 16.6112 10.1074C16.4419 10.0879 16.2661 10.0521 16.0838 10C15.9015 9.94792 15.7388 9.8698 15.5956 9.76563L15.6542 9.7168C15.5695 9.73633 15.4849 9.76238 15.4003 9.79493C15.3156 9.82748 15.2342 9.86329 15.1561 9.90235C15.078 9.94141 14.9934 9.96745 14.9022 9.98047C14.8111 9.99349 14.7232 10.0065 14.6386 10.0195L14.4823 10L14.5116 9.93164C14.4205 9.95768 14.3228 9.99024 14.2186 10.0293C14.1145 10.0684 14.0136 10.0879 13.9159 10.0879C13.8508 10.0879 13.7564 10.0651 13.6327 10.0195C13.509 9.97396 13.3853 9.91862 13.2616 9.85352C13.1379 9.78842 13.0273 9.7168 12.9296 9.63868C12.832 9.56056 12.7831 9.48569 12.7831 9.41408L12.8027 9.38478C12.7701 9.34572 12.7278 9.30991 12.6757 9.27736C12.6236 9.24481 12.5748 9.21226 12.5292 9.17971C12.4837 9.14716 12.4413 9.11135 12.4023 9.07229C12.3632 9.03323 12.3469 8.98766 12.3535 8.93557L12.4609 8.84769L12.2363 8.81839L12.1581 8.52543C12.1712 8.55798 12.2005 8.571 12.246 8.56449C12.2916 8.55798 12.3274 8.54496 12.3535 8.52543L12.0019 8.33989L12.246 7.7149C12.1549 7.37637 12.1321 7.11596 12.1777 6.93367C12.2233 6.75138 12.3111 6.60165 12.4413 6.48446C12.5716 6.36728 12.7148 6.25009 12.871 6.13291C13.0273 6.01573 13.1868 5.85622 13.3495 5.65441L13.3202 5.53722L13.9647 4.75599L14.1112 4.73646C14.2935 4.73646 14.4986 4.72995 14.7264 4.71693C14.9543 4.70391 15.1854 4.68112 15.4198 4.64857C15.6542 4.61602 15.8853 4.58347 16.1131 4.55092C16.341 4.51837 16.5493 4.47605 16.7381 4.42397C16.5298 4.17658 16.3117 3.94221 16.0838 3.72086C15.856 3.49951 15.6118 3.28793 15.3514 3.08611C15.2798 3.11215 15.1919 3.14796 15.0878 3.19353C14.9836 3.2391 14.8794 3.29769 14.7753 3.36931C14.6711 3.44092 14.5897 3.51904 14.5311 3.60368C14.4725 3.68831 14.4367 3.7762 14.4237 3.86734L14.4823 4.05288C14.3651 4.24168 14.2349 4.35887 14.0917 4.40444C13.9485 4.45001 13.802 4.47605 13.6523 4.48256C13.5025 4.48907 13.3463 4.48907 13.1835 4.48256C13.0208 4.47605 12.8645 4.50535 12.7148 4.57045L12.5585 4.23843L12.705 3.67203L12.539 3.4279L14.2284 2.90057C14.1568 2.71828 14.0396 2.58157 13.8769 2.49042C13.7141 2.39928 13.5351 2.35371 13.3398 2.35371V2.25605L13.8866 2.16816C13.2812 1.86869 12.6529 1.64083 12.0019 1.48459C11.3509 1.32834 10.6836 1.25022 10 1.25022C9.43361 1.25022 8.87373 1.30556 8.32036 1.41623C7.76698 1.5269 7.23314 1.68641 6.71883 1.89473C6.20452 2.10306 5.70649 2.36347 5.22473 2.67596C4.74297 2.98846 4.30353 3.34001 3.9064 3.73063C4.07567 3.73063 4.20587 3.77294 4.29702 3.85758C4.38816 3.94221 4.4728 4.03661 4.55092 4.14077C4.62904 4.24494 4.71042 4.33933 4.79505 4.42397C4.87969 4.5086 4.99362 4.55417 5.13684 4.56068L5.29309 4.4435L5.27356 4.22866L5.59581 3.76969L5.34191 3.04705C5.37446 3.02752 5.42329 2.99497 5.48839 2.9494C5.5535 2.90382 5.60883 2.88104 5.65441 2.88104C5.84971 2.88104 5.99945 2.8908 6.10361 2.91033C6.20778 2.92986 6.29892 2.96567 6.37704 3.01775C6.45517 3.06984 6.52352 3.1447 6.58212 3.24236C6.64071 3.34001 6.73185 3.46371 6.85555 3.61344L7.2071 3.34001C7.2722 3.36605 7.37637 3.40837 7.51959 3.46696C7.66282 3.52555 7.8093 3.59717 7.95904 3.6818C8.10877 3.76643 8.23572 3.85432 8.33989 3.94546C8.44405 4.03661 8.49939 4.12124 8.5059 4.19936C8.5059 4.29702 8.47009 4.37514 8.39848 4.43373C8.32687 4.49233 8.23247 4.54115 8.11528 4.58021C7.9981 4.61928 7.87766 4.64857 7.75396 4.6681C7.63027 4.68763 7.50657 4.71367 7.38288 4.74623C7.25918 4.77878 7.16478 4.81133 7.09968 4.84388C7.03458 4.87643 6.99552 4.93177 6.9825 5.00989L7.54889 5.19543C7.41868 5.30611 7.27871 5.40702 7.12898 5.49816C6.97924 5.5893 6.823 5.67394 6.66024 5.75206L6.6993 5.91807L5.80089 6.26962V6.54306L5.73253 6.57235L5.78136 6.23056L5.74229 6.2208C5.69672 6.2208 5.67068 6.23056 5.66417 6.25009C5.65766 6.26962 5.65441 6.29241 5.65441 6.31845C5.65441 6.34449 5.66092 6.37053 5.67394 6.39657C5.68696 6.42262 5.69021 6.44215 5.6837 6.45517L5.55675 6.38681L5.57628 6.42587C5.57628 6.4454 5.58605 6.4747 5.60558 6.51376C5.62511 6.55282 5.65115 6.58863 5.6837 6.62118C5.71625 6.65373 5.74229 6.68628 5.76183 6.71883C5.78136 6.75138 5.79438 6.76766 5.80089 6.76766C5.80089 6.78719 5.78787 6.80672 5.76183 6.82625C5.73578 6.84578 5.70323 6.8588 5.66417 6.86531C5.62511 6.87182 5.59907 6.88159 5.58605 6.89461C5.57303 6.90763 5.57303 6.91088 5.58605 6.90437C5.67719 6.90437 5.69672 6.91088 5.64464 6.92391C5.59256 6.93693 5.51118 6.96948 5.40051 7.02156C5.28983 7.07364 5.18892 7.14851 5.09778 7.24616C5.00664 7.34382 4.95455 7.48704 4.94153 7.67584C4.94153 7.78651 4.94479 7.89393 4.9513 7.9981C4.95781 8.10226 4.95455 8.20968 4.94153 8.32036C4.85039 8.07297 4.71367 7.88417 4.53139 7.75396C4.3491 7.62376 4.12775 7.55866 3.86734 7.55866L3.44743 7.59772L3.6525 7.73443C3.54183 7.72141 3.4279 7.70839 3.31071 7.69537C3.19353 7.68235 3.07309 7.67909 2.9494 7.68561C2.8257 7.69212 2.71503 7.71816 2.61737 7.76373C2.51972 7.8093 2.42206 7.87766 2.32441 7.9688L2.26582 8.40824C2.26582 8.61657 2.31139 8.78584 2.40253 8.91604C2.49368 9.04625 2.65318 9.11461 2.88104 9.12112C3.07635 9.12112 3.2684 9.09182 3.4572 9.03323C3.64599 8.97464 3.83153 8.90628 4.01382 8.82815C3.95523 8.97138 3.89013 9.1081 3.81851 9.2383C3.7469 9.36851 3.69482 9.51173 3.66227 9.66798L3.78922 9.72657C3.94546 9.62241 4.08869 9.60613 4.21889 9.67774C4.3491 9.74936 4.47605 9.85352 4.59974 9.99024C4.72344 10.127 4.85039 10.2669 4.98059 10.4101C5.1108 10.5534 5.25077 10.6575 5.40051 10.7226L5.06848 10.8984L4.28725 10.459C4.29376 10.472 4.30027 10.5013 4.30678 10.5469C4.31329 10.5924 4.31004 10.6022 4.29702 10.5762L3.94546 9.98047C3.73714 9.97396 3.51579 9.94141 3.28142 9.88282C3.04705 9.82422 2.80942 9.7461 2.56855 9.64845C2.32767 9.55079 2.10306 9.44337 1.89473 9.32619C1.68641 9.209 1.49435 9.08531 1.31858 8.9551L1.25022 10C1.25022 10.7943 1.35764 11.569 1.57248 12.3242C1.78732 13.0794 2.09004 13.789 2.48066 14.453C2.87127 15.1171 3.34978 15.7225 3.91617 16.2694C4.48256 16.8162 5.1108 17.2817 5.80089 17.6658C5.76834 17.5291 5.76508 17.3924 5.79112 17.2557C5.81716 17.119 5.84971 16.9822 5.88877 16.8455C5.92784 16.7088 5.97015 16.5721 6.01573 16.4354C6.0613 16.2987 6.08408 16.1587 6.08408 16.0155C6.08408 15.8071 6.05153 15.5891 5.98643 15.3612C5.92133 15.1333 5.8432 14.9022 5.75206 14.6679C5.66092 14.4335 5.56001 14.2024 5.44933 13.9745C5.33866 13.7467 5.25077 13.5318 5.18567 13.33C5.12056 13.1282 5.06848 12.9394 5.02942 12.7636C4.99036 12.5878 5.00989 12.4348 5.08801 12.3046L4.94153 12.2363C4.98059 12.1451 5.03268 12.0572 5.09778 11.9726C5.16288 11.888 5.23124 11.8033 5.30285 11.7187C5.37446 11.6341 5.4298 11.5429 5.46886 11.4453C5.50793 11.3476 5.53071 11.25 5.53722 11.1523C5.53722 11.0872 5.5242 11.0189 5.49816 10.9472C5.47212 10.8756 5.44933 10.8073 5.4298 10.7422L5.63488 10.791C5.74555 10.5371 5.89529 10.3646 6.08408 10.2734C6.27288 10.1823 6.5105 10.1335 6.79696 10.127C6.82951 10.127 6.89786 10.14 7.00203 10.166C7.10619 10.1921 7.21687 10.2279 7.33405 10.2734C7.45124 10.319 7.56191 10.3548 7.66607 10.3809C7.77024 10.4069 7.84836 10.4329 7.90044 10.459C7.90044 10.5045 7.92648 10.5338 7.97857 10.5469C8.03065 10.5599 8.05995 10.5827 8.06645 10.6152L8.04692 10.6933C8.06645 10.6999 8.11203 10.7226 8.18364 10.7617C8.25525 10.8008 8.33337 10.8496 8.41801 10.9082C8.50264 10.9668 8.57751 11.0189 8.64261 11.0644C8.70772 11.11 8.75329 11.1458 8.77933 11.1718C8.89651 11.1718 9.05601 11.2109 9.25783 11.289C9.45965 11.3672 9.681 11.4648 9.92188 11.582C10.1628 11.6992 10.4004 11.8391 10.6348 12.0019C10.8691 12.1647 11.0905 12.3274 11.2988 12.4902C11.5071 12.6529 11.6666 12.8157 11.7773 12.9784C11.888 13.1412 11.9531 13.2844 11.9726 13.4081L11.6406 13.7597C11.6666 14.0917 11.6438 14.3456 11.5722 14.5214C11.5006 14.6971 11.3899 14.8436 11.2402 14.9608C11.0905 15.078 10.9179 15.1757 10.7226 15.2538C10.5273 15.3319 10.3157 15.4426 10.0879 15.5858C10.0879 15.716 10.0553 15.856 9.99024 16.0057C9.92513 16.1554 9.84375 16.2987 9.7461 16.4354C9.64845 16.5721 9.53126 16.686 9.39455 16.7772C9.25783 16.8683 9.12112 16.9139 8.9844 16.9139L8.57425 16.6014C8.58728 16.6144 8.58728 16.6372 8.57425 16.6698C8.56123 16.7023 8.54496 16.7088 8.52543 16.6893C8.59053 16.813 8.60681 16.9562 8.57425 17.119C8.5417 17.2817 8.48637 17.4477 8.40824 17.617C8.33012 17.7863 8.24223 17.9458 8.14458 18.0955C8.04692 18.2452 7.95904 18.3722 7.88091 18.4764C8.23247 18.5675 8.58402 18.6359 8.93557 18.6814C9.28713 18.727 9.64194 18.7498 10 18.7498Z" fill="#90B2B4"/>
</svg>
